<svg xmlns="http://www.w3.org/2000/svg" version="1.1" xmlns:xlink="http://www.w3.org/1999/xlink" xmlns:svgjs="http://svgjs.com/svgjs" width="1000" height="1000"><rect width="1000" height="1000" rx="150" ry="150" fill="#000000"></rect><g transform="matrix(10.9375,0,0,10.9375,145.03125,153.9749962091446)"><svg xmlns="http://www.w3.org/2000/svg" version="1.1" xmlns:xlink="http://www.w3.org/1999/xlink" xmlns:svgjs="http://svgjs.com/svgjs" width="64" height="64"><svg version="1.1" id="Capa_1" transform="rotate(0)" xmlns="http://www.w3.org/2000/svg" xmlns:xlink="http://www.w3.org/1999/xlink" x="0px" y="0px" viewBox="19 -20.4 64 64" enable-background="new 19 -20.4 64 64" xml:space="preserve">
<g id="SVGRepo_bgCarrier">
</g>
<g id="SVGRepo_tracerCarrier">
</g>
<g id="SVGRepo_iconCarrier">
	<g>
		<g>
			<polygon fill="#FFFFFF" stroke="#FFFFFF" stroke-width="9.407000e-004" points="70.7,3.3 63.5,3.3 41.8,23.8 27.2,23.8 27.2,9.5 
				47.1,-9 33.8,-9 19,4.8 19,32.3 46.9,32.3 70.7,9.6 			"></polygon>
			<polygon fill="#FFFFFF" stroke="#FFFFFF" stroke-width="9.407000e-004" points="55.1,-9 31.3,13.6 31.3,19.9 38.5,19.9 
				60.2,-0.5 74.8,-0.5 74.8,13.7 54.9,32.3 68.2,32.2 83,18.5 83,-9 			"></polygon>
		</g>
	</g>
</g>
<line fill="none" stroke="#231F20" stroke-width="0.75" x1="72.1" y1="-9.9" x2="84" y2="3"></line>
</svg></svg></g></svg>