<?xml version="1.0" encoding="utf-8"?>
<!-- Generator: Adobe Illustrator 27.5.0, SVG Export Plug-In . SVG Version: 6.00 Build 0)  -->
<svg version="1.1" xmlns="http://www.w3.org/2000/svg" xmlns:xlink="http://www.w3.org/1999/xlink" x="0px" y="0px"
	 viewBox="0 0 500 500" style="enable-background:new 0 0 500 500;" xml:space="preserve">
<g id="BACKGROUND">
	<rect style="fill:#FFFFFF;" width="500" height="500"/>
</g>
<g id="OBJECTS">
	<g>
		<g>
			<path style="fill:#DAE2FF;" d="M199.894,472.566h-141.7c-6.693-9.585-13.181-20.589-16.207-31.881
				c-3.027-11.292-1.557-24.52,6.675-32.821c4.821-4.861,11.542-7.693,15.73-13.109c6.076-7.858,5.242-19.112,2.01-28.505
				s-8.53-18.073-10.73-27.76c-2.199-9.687-0.365-21.357,7.9-26.867c8.231-5.488,19.295-2.87,28.458,0.857
				c9.163,3.727,18.735,8.486,28.457,6.657c8.627-1.622,15.375-8.095,21.956-13.905c9.745-8.604,20.453-16.456,32.709-20.789
				s26.297-4.832,37.959,0.913c11.662,5.745,20.207,18.452,18.926,31.389c-2.058,20.79-26.078,33.127-31.202,53.381
				c-2.866,11.327,0.706,23.244,5.135,34.055c4.429,10.811,9.825,21.54,10.781,33.184
				C217.707,449.007,211.577,472.566,199.894,472.566z"/>
			<g>
				<path style="fill:#DB9A83;" d="M192.136,383.923l-15.171-33.876c-2.414-5.391-7.77-8.861-13.677-8.861l0,0l-1.044,24.202
					l13.77,28.674L192.136,383.923z"/>
				<polygon style="fill:#3D579E;" points="167.684,443.467 88.995,443.467 93.391,341.187 163.288,341.187 				"/>
				<g>
					<g>
						<path style="fill:#E9B49D;" d="M128.339,337.2c-3.305,0-6.415-1.255-9.131-3.465l-0.572,8.868h19.407l-0.572-8.868
							C134.755,335.945,131.645,337.2,128.339,337.2L128.339,337.2z"/>
						<path style="fill:#272425;" d="M119.984,321.715l-0.776,12.02c2.716,2.21,5.826,3.465,9.131,3.465l0,0
							c3.305,0,6.415-1.255,9.131-3.465l-0.776-12.02H119.984z"/>
					</g>
					<path style="fill:#E9B49D;" d="M116.795,341.187c1.463,4.995,6.076,8.643,11.544,8.643c5.468,0,10.081-3.649,11.544-8.643
						H116.795z"/>
				</g>
				<path style="fill:#3D579E;" d="M163.288,341.187L163.288,341.187c6.786,0,12.941,3.979,15.728,10.166l8.155,18.108
					l-20.567,9.196l-4.36-13.269L163.288,341.187z"/>
				<polygon style="fill:#272425;" points="168.26,377.917 185.911,370.024 170.615,382.821 				"/>
				<g>
					<g>
						<polygon style="fill:#E9B49D;" points="193.68,351.829 183.354,345.893 190.364,330.232 204.81,338.537 						"/>
						<path style="fill:#E9B49D;" d="M183.354,345.893l-0.46-8.972c-0.051-0.999,0.014-2.001,0.194-2.984l1.322-7.223l0,0
							c1.247,0.297,2.177,1.341,2.326,2.615l1.043,8.866L183.354,345.893z"/>
						<path style="fill:#E9B49D;" d="M190.364,330.232l7.028-13.625c0.359-0.7,1.23-0.958,1.912-0.566l0,0
							c0.598,0.344,0.849,1.077,0.588,1.716l-5.952,14.531L190.364,330.232z"/>
						<path style="fill:#E9B49D;" d="M193.94,332.288l8.293-14.425c0.43-0.747,1.383-1.004,2.13-0.575l0,0
							c0.689,0.396,0.97,1.247,0.653,1.976l-6.757,15.507L193.94,332.288z"/>
						<path style="fill:#E9B49D;" d="M198.259,334.771l8.583-13.006c0.374-0.566,1.124-0.744,1.712-0.406l0,0
							c0.599,0.344,0.818,1.102,0.496,1.713l-7.245,13.738L198.259,334.771z"/>
						<path style="fill:#E9B49D;" d="M201.805,336.81l6.964-9.109c0.358-0.468,1.007-0.598,1.518-0.305l0,0
							c0.575,0.331,0.762,1.072,0.413,1.636l-5.889,9.506L201.805,336.81z"/>
					</g>
					<path style="fill:#DB9A83;" d="M187.577,336.46l11.643,6.694l-1.684-1.749c-2.425-2.52-5.593-4.197-9.04-4.788L187.577,336.46z
						"/>
				</g>
				<path style="fill:#E9B49D;" d="M182.406,402.218L182.406,402.218c-4.604-1.402-7.463-5.993-6.689-10.743l7.637-46.927
					l10.326,5.937l1.14,42.275C194.997,399.324,188.688,404.131,182.406,402.218z"/>
				<g>
					<g>
						<path style="fill:#DB9A83;" d="M76.102,464.011c-1.009-1.753-2.857-2.854-4.879-2.907h0l-2.291-3.768l-2.717-3.426
							l-0.529,5.293l2.124,2.67c1.077,1.354,2.712,2.142,4.442,2.142h3.853L76.102,464.011z"/>
						<path style="fill:#DB9A83;" d="M66.229,455.894l5.903,7.42c1.077,1.354,2.712,2.142,4.442,2.142h3.853l-0.003-0.005
							c-1.009-1.753-2.857-2.854-4.879-2.907l0,0l-2.291-3.768l-3.533-4.453L66.229,455.894z"/>
						<path style="fill:#DB9A83;" d="M70.55,457.335l5.903,7.42c1.077,1.353,2.712,2.142,4.442,2.142h3.853l-0.003-0.005
							c-1.009-1.753-2.857-2.854-4.879-2.907l0,0l-2.291-3.768l-3.533-4.453L70.55,457.335z"/>
						<path style="fill:#DB9A83;" d="M74.872,458.775l5.903,7.42c1.077,1.354,2.712,2.142,4.442,2.142h3.853l-0.003-0.005
							c-1.009-1.753-2.857-2.854-4.879-2.907l0,0l-2.291-3.768l-3.533-4.453L74.872,458.775z"/>
					</g>
					<path style="fill:#E9B49D;" d="M94.435,365.388l-1.044-24.202l0,0c-5.907,0-11.263,3.47-13.677,8.861L60.04,392.78
						c-2.369,5.146-2.899,10.95-1.501,16.44l8.72,34.247l-1.441,14.406l16.152,6.627v-21.032l-7.365-36.978L94.435,365.388z"/>
					<path style="fill:#3D579E;" d="M93.391,341.187L93.391,341.187c-6.786,0-12.941,3.979-15.728,10.166l-8.155,18.108
						l20.567,9.196l4.36-13.269L93.391,341.187z"/>
					<polygon style="fill:#272425;" points="88.418,377.917 70.767,370.024 86.063,382.821 					"/>
					<path style="fill:#E9B49D;" d="M81.971,443.467l5.6,9.364l1.729,9.94l0,0c-1.631,0-3.074-1.054-3.571-2.607l-1.471-4.596
						l-2.287-2.449V443.467z"/>
				</g>
				<polygon style="fill:#8496BA;" points="168.26,472.566 88.418,472.566 90.692,443.467 165.986,443.467 				"/>
				<polygon style="fill:#272425;" points="90.692,443.467 165.986,443.467 166.518,450.274 90.026,451.992 				"/>
				<g>
					<rect x="99.144" y="385.268" style="fill:#29437C;" width="50.324" height="0.576"/>
					
						<rect x="136.31" y="370.354" transform="matrix(0.0706 -0.9975 0.9975 0.0706 -264.5677 501.0321)" style="fill:#29437C;" width="0.577" height="44.288"/>
					<polygon style="fill:#29437C;" points="94.154,362.011 92.325,370.104 92.325,355.232 91.749,355.232 91.926,375.268 
						94.716,362.138 					"/>
					<polygon style="fill:#29437C;" points="164.93,355.232 164.354,355.232 164.354,370.104 162.525,362.011 161.962,362.138 
						164.753,375.268 					"/>
					
						<rect x="93.234" y="439.241" transform="matrix(0.9999 -0.0116 0.0116 0.9999 -5.101 1.5096)" style="fill:#29437C;" width="68.145" height="0.576"/>
					
						<rect x="122.961" y="411.341" transform="matrix(0.0636 -0.998 0.998 0.0636 -319.2045 530.7928)" style="fill:#29437C;" width="0.576" height="48.309"/>
					
						<rect x="119.264" y="431.462" transform="matrix(0.9977 -0.0675 0.0675 0.9977 -28.8163 10.4849)" style="fill:#29437C;" width="43.028" height="0.576"/>
					<path style="fill:#29437C;" d="M144.649,342.684l-0.553-0.162c-0.785,2.681-2.26,5.137-4.266,7.104l0.404,0.411
						C142.309,348.002,143.836,345.459,144.649,342.684z"/>
					<path style="fill:#29437C;" d="M128.339,354.896c2.654,0,5.195-0.595,7.554-1.768l-0.257-0.516
						c-2.279,1.133-4.734,1.708-7.298,1.708c-7.242,0-13.721-4.851-15.757-11.798l-0.553,0.162
						C114.136,349.874,120.843,354.896,128.339,354.896z"/>
				</g>
				<g>
					<g>
						<circle style="fill:#DB9A83;" cx="107.139" cy="312.303" r="7.563"/>
						<circle style="fill:#C97E67;" cx="107.139" cy="312.303" r="4.106"/>
					</g>
					<g>
						<circle style="fill:#DB9A83;" cx="149.54" cy="312.303" r="7.563"/>
						<path style="fill:#C97E67;" d="M149.54,316.409c2.264,0,4.106-1.842,4.106-4.106c0-2.264-1.842-4.106-4.106-4.106
							c-2.264,0-4.106,1.842-4.106,4.106C145.434,314.567,147.276,316.409,149.54,316.409z"/>
					</g>
					<path style="fill:#E9B49D;" d="M128.339,332.159L128.339,332.159c-10.608,0-19.208-8.6-19.208-19.208v-12.677
						c0-10.608,8.599-19.208,19.208-19.208l0,0c10.608,0,19.208,8.6,19.208,19.208v6.339v6.339
						C147.547,323.56,138.947,332.159,128.339,332.159z"/>
					<path style="fill:#272425;" d="M140.785,276.73c1.249,0.151,2.546-0.293,3.432-1.316c1.212-1.399,1.254-3.41,0.219-4.85
						l-2.117,2.445c0.039-0.232,0.06-0.469,0.06-0.712c0-2.03-1.409-3.728-3.301-4.179v4.406c-0.192-0.378-0.432-0.737-0.743-1.057
						c-1.416-1.455-3.61-1.688-5.28-0.691l4.185,4.298c-2.77-1.037-5.768-1.608-8.9-1.608c-14.022,0-25.39,11.367-25.39,25.39
						c0,6.453,2.411,12.339,6.377,16.819l1.919-13.256l6.478-0.704c6.811-0.74,13.069-4.094,17.458-9.356l2.291-2.747l-2.937,11.525
						l1.969-1.328c1.917-1.293,3.392-3.142,4.225-5.299l0.607,1.906c0.668,2.1,2.143,3.849,4.099,4.864l1.919,14.394
						c3.965-4.479,6.376-10.366,6.376-16.819C153.729,289.359,148.509,281.084,140.785,276.73z"/>
					<g>
						<g>
							<path style="fill:#272425;" d="M122.373,308.21c0,1.081-0.876,1.957-1.957,1.957c-1.081,0-1.957-0.876-1.957-1.957
								c0-1.081,0.876-1.957,1.957-1.957C121.497,306.253,122.373,307.129,122.373,308.21z"/>
							<path style="fill:#FFFFFF;" d="M120.352,307.422c0,0.338-0.274,0.613-0.612,0.613c-0.338,0-0.612-0.274-0.612-0.613
								c0-0.338,0.274-0.612,0.612-0.612C120.078,306.81,120.352,307.084,120.352,307.422z"/>
						</g>
						<g>
							<path style="fill:#272425;" d="M122.901,304.999c-0.221,0-0.443-0.084-0.611-0.253c-0.517-0.517-1.205-0.802-1.937-0.802
								c-0.732,0-1.42,0.285-1.937,0.802c-0.338,0.338-0.885,0.338-1.222,0c-0.338-0.337-0.338-0.885,0-1.222
								c0.844-0.844,1.966-1.309,3.159-1.309c1.193,0,2.315,0.465,3.159,1.309c0.338,0.338,0.338,0.885,0,1.222
								C123.343,304.914,123.122,304.999,122.901,304.999z"/>
						</g>
					</g>
					<g>
						<g>
							<circle style="fill:#272425;" cx="136.262" cy="308.21" r="1.957"/>
							<circle style="fill:#FFFFFF;" cx="135.586" cy="307.422" r="0.613"/>
						</g>
						<g>
							<path style="fill:#272425;" d="M133.778,304.999c0.221,0,0.443-0.084,0.611-0.253c0.517-0.517,1.205-0.802,1.937-0.802
								c0.732,0,1.42,0.285,1.937,0.802c0.338,0.338,0.885,0.338,1.222,0c0.338-0.337,0.338-0.885,0-1.222
								c-0.844-0.844-1.966-1.309-3.159-1.309c-1.194,0-2.315,0.465-3.159,1.309c-0.338,0.338-0.338,0.885,0,1.222
								C133.336,304.914,133.557,304.999,133.778,304.999z"/>
						</g>
					</g>
					<path style="fill:#C97E67;" d="M124.066,314.932c0.655,1.725,2.318,2.953,4.273,2.953c1.954,0,3.618-1.228,4.273-2.953H124.066
						z"/>
					<path style="fill:#FFFFFF;" d="M119.116,319.182c1.413,3.723,5.004,6.375,9.223,6.375c4.219,0,7.81-2.651,9.223-6.375H119.116z
						"/>
					<path style="fill:#DB9387;" d="M118.459,315.677c0,1.846-1.497,3.343-3.343,3.343c-1.846,0-3.343-1.497-3.343-3.343
						c0-1.846,1.497-3.343,3.343-3.343C116.962,312.334,118.459,313.831,118.459,315.677z"/>
					<path style="fill:#DB9387;" d="M138.219,315.677c0,1.846,1.497,3.343,3.343,3.343s3.343-1.497,3.343-3.343
						c0-1.846-1.497-3.343-3.343-3.343S138.219,313.831,138.219,315.677z"/>
				</g>
			</g>
		</g>
		<g>
			<path style="fill:#DAE2FF;" d="M445.52,247.401h-141.7c-16.032-12.765-25.81-36.151-25.37-56.64s10.907-40.527,27.471-52.593
				c4.822-3.512,10.241-6.498,13.728-11.338c7.416-10.292,3.544-24.43,3.88-37.112c0.485-18.277,11.226-35.945,27.23-44.786
				c16.004-8.842,36.678-8.531,52.409,0.789c15.731,9.319,25.936,27.302,25.871,45.585c-0.046,12.829-4.725,25.921-1.098,38.226
				c3.99,13.536,16.799,22.213,25.399,33.402c9.134,11.883,13.588,27.267,12.216,42.191
				C464.184,220.05,456.668,237.383,445.52,247.401z"/>
			<g>
				<g>
					<polygon style="fill:#75231E;" points="414.976,247.401 335.134,247.401 337.408,218.302 412.702,218.302 					"/>
					<polygon style="fill:#272425;" points="336.271,232.851 413.586,229.616 414.222,237.751 336.271,235.012 					"/>
				</g>
				<g>
					<polygon style="fill:#D8672B;" points="415.798,229.527 333.183,232.851 340.106,116.021 410.004,116.021 					"/>
					<g>
						<rect x="345.894" y="156.653" style="fill:#C64810;" width="50.324" height="0.576"/>
						
							<rect x="383.061" y="141.739" transform="matrix(0.0706 -0.9975 0.9975 0.0706 192.7979 534.6993)" style="fill:#C64810;" width="0.577" height="44.288"/>
						
							<rect x="339.984" y="226.185" transform="matrix(0.9999 -0.0118 0.0118 0.9999 -2.6432 4.4243)" style="fill:#C64810;" width="68.145" height="0.576"/>
						
							<rect x="369.711" y="198.285" transform="matrix(0.0636 -0.998 0.998 0.0636 124.4748 577.5397)" style="fill:#C64810;" width="0.576" height="48.309"/>
						
							<rect x="366.014" y="218.406" transform="matrix(0.9978 -0.067 0.067 0.9978 -13.7736 26.439)" style="fill:#C64810;" width="43.029" height="0.576"/>
						<path style="fill:#C64810;" d="M391.365,117.519l-0.553-0.162c-0.786,2.681-2.26,5.137-4.265,7.104l0.403,0.411
							C389.025,122.836,390.552,120.294,391.365,117.519z"/>
						<path style="fill:#C64810;" d="M375.055,129.731c2.654,0,5.196-0.595,7.555-1.768l-0.257-0.516
							c-2.279,1.133-4.734,1.708-7.298,1.708c-7.242,0-13.721-4.851-15.756-11.798l-0.553,0.162
							C360.852,124.709,367.559,129.731,375.055,129.731z"/>
					</g>
				</g>
				<g>
					<g>
						<path style="fill:#A76C54;" d="M375.055,112.035c-3.305,0-6.415-1.255-9.131-3.465l-0.572,8.868h19.407l-0.572-8.868
							C381.47,110.779,378.361,112.035,375.055,112.035L375.055,112.035z"/>
						<path style="fill:#272425;" d="M366.7,96.55l-0.776,12.02c2.716,2.21,5.826,3.465,9.131,3.465h0
							c3.305,0,6.415-1.255,9.131-3.465l-0.776-12.02H366.7z"/>
					</g>
					<path style="fill:#A76C54;" d="M363.511,116.021c1.463,4.995,6.076,8.643,11.544,8.643c5.468,0,10.081-3.649,11.544-8.643
						H363.511z"/>
				</g>
				<g>
					<g>
						<polygon style="fill:#A76C54;" points="443.249,58.52 432.055,62.591 424.596,47.139 440.256,41.444 						"/>
						<path style="fill:#A76C54;" d="M432.055,62.591l-7.157-5.43c-0.797-0.605-1.521-1.3-2.157-2.072l-4.672-5.666v0
							c1.031-0.763,2.428-0.8,3.499-0.094l7.452,4.916L432.055,62.591z"/>
						<path style="fill:#A76C54;" d="M424.596,47.139l-5.89-14.154c-0.304-0.725,0.06-1.558,0.799-1.827l0,0
							c0.648-0.236,1.371,0.045,1.691,0.656l7.277,13.915L424.596,47.139z"/>
						<path style="fill:#A76C54;" d="M428.472,45.729l-5.686-15.637c-0.294-0.81,0.123-1.705,0.933-1.999l0,0
							c0.747-0.272,1.579,0.062,1.931,0.774l7.504,15.16L428.472,45.729z"/>
						<path style="fill:#A76C54;" d="M433.155,44.026l-4.415-14.944c-0.192-0.651,0.155-1.339,0.793-1.571l0,0
							c0.65-0.236,1.37,0.084,1.63,0.724l5.837,14.393L433.155,44.026z"/>
						<path style="fill:#A76C54;" d="M436.999,42.628l-2.479-11.195c-0.127-0.575,0.191-1.156,0.745-1.357l0,0
							c0.624-0.227,1.311,0.108,1.517,0.738l3.474,10.629L436.999,42.628z"/>
					</g>
					<path style="fill:#915844;" d="M427.562,53.284l12.621-4.59l-2.422,0.16c-3.49,0.231-6.814,1.573-9.487,3.828L427.562,53.284z"
						/>
				</g>
				<g>
					<path style="fill:#231F20;" d="M399.435,64.273c1.285-2.028,1.475-4.673,0.271-6.955c-1.205-2.271-3.498-3.596-5.901-3.671
						c0.196-2.391-0.859-4.817-2.979-6.275c-2.121-1.458-4.771-1.568-6.938-0.519c-0.934-2.213-3.002-3.878-5.566-4.178
						c-2.552-0.3-4.938,0.835-6.367,2.76c-1.855-1.521-4.46-2.034-6.863-1.118c-2.403,0.922-3.999,3.042-4.368,5.417
						c-2.351-0.484-4.886,0.265-6.586,2.195c-1.706,1.93-2.138,4.546-1.36,6.817c-2.311,0.663-4.212,2.512-4.823,5.019
						c-0.611,2.495,0.225,5.013,1.965,6.661c-1.735,1.654-2.558,4.172-1.942,6.667c0.622,2.507,2.53,4.345,4.846,5.002
						c-0.772,2.276-0.329,4.886,1.383,6.811c1.706,1.919,4.247,2.662,6.598,2.172c0.375,2.374,1.976,4.483,4.385,5.393
						c2.409,0.91,5.013,0.392,6.863-1.146c1.273,1.711,3.313,2.789,5.543,2.789c0.276,0,0.553-0.011,0.835-0.046
						c2.559-0.311,4.622-1.982,5.549-4.201c2.172,1.043,4.817,0.922,6.938-0.547c2.115-1.464,3.158-3.896,2.95-6.287
						c2.403-0.086,4.691-1.418,5.889-3.694c1.199-2.282,0.997-4.927-0.3-6.955c2.08-1.187,3.486-3.434,3.486-6.004
						c0-0.012,0-0.023,0-0.035c0-0.023,0-0.052,0-0.075C402.939,67.696,401.521,65.454,399.435,64.273z"/>
					<g>
						<circle style="fill:#915844;" cx="353.855" cy="87.138" r="7.563"/>
						<path style="fill:#774332;" d="M353.855,91.243c-2.264,0-4.106-1.842-4.106-4.106s1.842-4.106,4.106-4.106
							c2.264,0,4.106,1.842,4.106,4.106S356.119,91.243,353.855,91.243z"/>
					</g>
					<g>
						<circle style="fill:#915844;" cx="396.256" cy="87.138" r="7.563"/>
						<circle style="fill:#774332;" cx="396.255" cy="87.138" r="4.106"/>
					</g>
					<path style="fill:#A76C54;" d="M375.055,106.994L375.055,106.994c-10.608,0-19.208-8.599-19.208-19.207V75.109
						c0-10.608,8.6-19.208,19.207-19.208h0c10.608,0,19.207,8.599,19.207,19.208v6.339v6.339
						C394.263,98.394,385.663,106.994,375.055,106.994z"/>
					<g>
						<g>
							<circle style="fill:#272425;" cx="367.132" cy="81.637" r="1.957"/>
							<path style="fill:#FFFFFF;" d="M367.068,80.85c0,0.338-0.274,0.612-0.612,0.612c-0.338,0-0.612-0.274-0.612-0.612
								s0.274-0.613,0.612-0.613C366.794,80.237,367.068,80.511,367.068,80.85z"/>
						</g>
						<path style="fill:#272425;" d="M370.301,75.556h-6.339c-0.557,0-1.008,0.451-1.008,1.008c0,0.557,0.451,1.008,1.008,1.008
							h6.339c0.557,0,1.008-0.451,1.008-1.008C371.31,76.007,370.858,75.556,370.301,75.556z"/>
					</g>
					<g>
						<g>
							<path style="fill:#272425;" d="M384.935,81.637c0,1.081-0.876,1.957-1.957,1.957s-1.957-0.876-1.957-1.957
								c0-1.081,0.876-1.957,1.957-1.957S384.935,80.557,384.935,81.637z"/>
							<path style="fill:#FFFFFF;" d="M382.915,80.85c0,0.338-0.274,0.612-0.613,0.612c-0.338,0-0.612-0.274-0.612-0.612
								s0.274-0.613,0.612-0.613C382.641,80.237,382.915,80.511,382.915,80.85z"/>
						</g>
						<path style="fill:#272425;" d="M379.809,75.556h6.339c0.557,0,1.008,0.451,1.008,1.008c0,0.557-0.452,1.008-1.008,1.008
							h-6.339c-0.557,0-1.008-0.451-1.008-1.008C378.801,76.007,379.252,75.556,379.809,75.556z"/>
					</g>
					<path style="fill:#915844;" d="M370.782,89.767c0.655,1.725,2.318,2.953,4.273,2.953c1.955,0,3.618-1.228,4.273-2.953H370.782z
						"/>
					<path style="fill:#FFFFFF;" d="M365.832,94.017c1.413,3.723,5.004,6.374,9.223,6.374c4.219,0,7.81-2.651,9.223-6.374H365.832z"
						/>
					<path style="fill:#915844;" d="M365.175,90.512c0,1.846-1.497,3.343-3.343,3.343s-3.343-1.497-3.343-3.343
						c0-1.846,1.497-3.343,3.343-3.343S365.175,88.665,365.175,90.512z"/>
					<path style="fill:#915844;" d="M384.935,90.512c0,1.846,1.497,3.343,3.343,3.343c1.846,0,3.343-1.497,3.343-3.343
						c0-1.846-1.497-3.343-3.343-3.343C386.432,87.169,384.935,88.665,384.935,90.512z"/>
					<path style="fill:#231F20;" d="M397.63,65.95c-0.667,0-1.309,0.1-1.918,0.279c0.349-0.82,0.544-1.722,0.544-2.669
						c0-3.763-3.05-6.813-6.813-6.813c-1.513,0-2.905,0.499-4.036,1.333c-0.734-2.97-3.409-5.175-6.606-5.175
						c-1.384,0-2.67,0.416-3.746,1.125c-1.075-0.709-2.361-1.125-3.745-1.125c-3.197,0-5.872,2.205-6.606,5.175
						c-1.13-0.834-2.523-1.333-4.036-1.333c-3.763,0-6.813,3.05-6.813,6.813c0,0.948,0.194,1.849,0.544,2.669
						c-0.609-0.179-1.252-0.279-1.918-0.279v13.625c0.114,0,0.225-0.011,0.337-0.017c-0.124,0.611-0.197,1.241-0.197,1.89
						c0,2.841,1.252,5.385,3.227,7.128V78.68c2.056-1.173,3.445-3.381,3.445-5.918c0-0.948-0.194-1.849-0.544-2.669
						c0.609,0.178,1.252,0.279,1.919,0.279c3.197,0,5.872-2.205,6.606-5.175c1.13,0.834,2.523,1.333,4.036,1.333
						c1.384,0,2.67-0.415,3.745-1.125c1.075,0.709,2.361,1.125,3.746,1.125c1.513,0,2.905-0.499,4.036-1.333
						c0.734,2.97,3.409,5.175,6.606,5.175c0.667,0,1.309-0.1,1.918-0.279c-0.349,0.82-0.544,1.722-0.544,2.669
						c0,2.536,1.389,4.745,3.445,5.918v9.896c1.975-1.743,3.227-4.287,3.227-7.128c0-0.648-0.073-1.278-0.197-1.89
						c0.112,0.006,0.223,0.017,0.337,0.017V65.95z"/>
				</g>
				<g>
					<g>
						<polygon style="fill:#963B39;" points="443.249,58.52 432.055,62.591 433.537,68.298 445.624,63.889 						"/>
						<path style="fill:#75231E;" d="M463.509,104.309l-14.631-35.631c-0.678-1.651-1.666-3.157-2.911-4.437l-0.343-0.352
							l-12.087,4.409l0,0c-0.456,2.265-0.343,4.607,0.328,6.817l9.959,32.781l-33.908,7.165l1.128,27.755l46.029-21.403
							C463.524,118.42,466.387,110.811,463.509,104.309z"/>
					</g>
					<path style="fill:#272425;" d="M413.096,141.862l-2.004-16.895l0,0c4.293,3.715,6.393,9.364,5.57,14.982l-0.04,0.274
						L413.096,141.862z"/>
					<path style="fill:#272425;" d="M443.825,107.896l10.462-2.103l-0.821-0.42c-3.298-1.689-7.061-2.244-10.706-1.577l0,0
						L443.825,107.896z"/>
				</g>
				<g>
					<g>
						<polygon style="fill:#75231E;" points="389.941,115.061 400.361,224.352 422.882,224.352 409.917,115.061 						"/>
						<path style="fill:#963B39;" d="M394.025,157.894l3.221-42.563c0.219-2.898-1.753-5.505-4.602-6.082l-8.526-1.727l0.549,8.5
							h5.274L394.025,157.894z"/>
					</g>
					<polygon style="fill:#963B39;" points="416.087,208.639 406.412,189.605 403.154,192.863 412.829,211.897 					"/>
				</g>
				<g>
					<polygon style="fill:#75231E;" points="360.169,115.061 349.749,224.352 327.228,224.352 340.193,115.061 					"/>
					<path style="fill:#963B39;" d="M356.086,157.894l-3.221-42.563c-0.219-2.898,1.754-5.505,4.602-6.082l8.526-1.727l-0.549,8.5
						h-5.274L356.086,157.894z"/>
					<polygon style="fill:#963B39;" points="334.023,208.639 343.699,189.605 346.957,192.863 337.281,211.897 					"/>
					<polygon style="fill:#272425;" points="332.474,180.134 343.064,190.855 334.023,208.639 328.984,209.552 					"/>
				</g>
				<g>
					<path style="fill:#75231E;" d="M335.091,206.539l-22.924-16.501c-6.579-4.736-8.921-13.444-5.605-20.841l20.297-45.277
						c2.416-5.39,7.773-8.859,13.68-8.859l0,0l-1.588,26.795l-15.036,32.845l18.164,18.092L335.091,206.539z"/>
					<path style="fill:#272425;" d="M336.338,147.564l2.24-18.886l0,0c-4.624,7.182-6.788,15.672-6.166,24.19l0.206,2.822
						L336.338,147.564z"/>
					<path style="fill:#272425;" d="M323.915,174.701l-6.387-5.858l1.352-0.15c2.463-0.274,4.938,0.401,6.922,1.886v0
						L323.915,174.701z"/>
				</g>
			</g>
		</g>
		<g>
			<path style="fill:#DAE2FF;" d="M200.676,247.401h-141.7c-8.895-9.159-18.277-19.26-22.613-31.523
				c-4.337-12.263-2.37-28.029,7.86-35.495c3.51-2.561,7.703-3.976,11.115-6.68c7.26-5.755,9.609-16.449,8.167-25.88
				c-1.442-9.431-6.014-17.961-10.43-26.311s-8.833-17.009-9.912-26.493c-1.709-15.021,6.08-30.747,18.774-37.903
				c12.694-7.156,29.48-5.285,40.461,4.509c7.459,6.653,12.45,16.546,21.285,20.966c7.826,3.916,17.12,2.666,25.392-0.058
				c8.272-2.724,16.158-6.833,24.671-8.551c8.513-1.718,18.221-0.586,24.342,5.86c8.352,8.795,6.854,23.316,3.615,35.261
				c-3.239,11.945-7.614,24.83-3.217,36.36c2.24,5.874,6.52,10.58,9.953,15.781c7.611,11.528,11.101,25.983,9.641,39.926
				C216.619,221.114,210.491,237.885,200.676,247.401z"/>
			<g>
				<path style="fill:#74231A;" d="M143.289,89.226c-6.438,0-12.109,3.274-15.444,8.247c-3.335-4.973-9.007-8.247-15.444-8.247
					c-10.263,0-18.583,8.32-18.583,18.583s8.32,18.583,18.583,18.583c6.438,0,12.109-3.274,15.444-8.247
					c3.335,4.973,9.007,8.247,15.444,8.247c10.263,0,18.583-8.32,18.583-18.583S153.552,89.226,143.289,89.226z"/>
				<g>
					<polygon style="fill:#E16477;" points="97.811,199.574 158.539,199.574 162.533,116.021 93.817,116.021 					"/>
					<polygon style="fill:#AF4763;" points="95.854,158.635 96.465,171.401 159.885,171.401 160.496,158.635 					"/>
					<path style="fill:#E16477;" d="M153.965,166.249h-51.58c-7.416,0-12.108-7.878-9.294-15.271l5.088-13.364h59.991l5.088,13.364
						C166.073,158.371,161.381,166.249,153.965,166.249z"/>
				</g>
				<g>
					<path style="fill:#E16477;" d="M69.105,161.317l13.892-37.612c1.706-4.618,6.107-7.684,11.03-7.684l0,0l2.527,22.195
						l-15.403,35.897L69.105,161.317z"/>
					<polygon style="fill:#272425;" points="78.659,140.223 86.845,160.843 81.151,174.113 					"/>
					<g>
						<g>
							<g>
								<polygon style="fill:#E9B49D;" points="65.058,127.817 75.384,121.88 68.374,106.219 53.928,114.524 								"/>
								<path style="fill:#E9B49D;" d="M75.384,121.88l0.46-8.972c0.051-0.999-0.014-2-0.194-2.984l-1.322-7.223l0,0
									c-1.247,0.297-2.177,1.341-2.326,2.615l-1.043,8.866L75.384,121.88z"/>
								<path style="fill:#E9B49D;" d="M68.374,106.219l-7.028-13.625c-0.358-0.7-1.23-0.958-1.912-0.566l0,0
									c-0.598,0.344-0.849,1.077-0.588,1.715l5.952,14.531L68.374,106.219z"/>
								<path style="fill:#E9B49D;" d="M64.798,108.275L56.505,93.85c-0.429-0.747-1.383-1.004-2.13-0.575l0,0
									c-0.689,0.396-0.97,1.247-0.653,1.976l6.757,15.507L64.798,108.275z"/>
								<path style="fill:#E9B49D;" d="M60.479,110.758l-8.583-13.006c-0.374-0.566-1.124-0.744-1.712-0.406l0,0
									c-0.599,0.344-0.818,1.102-0.496,1.713l7.245,13.738L60.479,110.758z"/>
								<path style="fill:#E9B49D;" d="M56.933,112.797l-6.964-9.109c-0.358-0.468-1.007-0.598-1.518-0.305l0,0
									c-0.575,0.331-0.762,1.072-0.413,1.636l5.889,9.506L56.933,112.797z"/>
							</g>
							<path style="fill:#DB9A83;" d="M71.162,112.447l-11.643,6.694l1.684-1.749c2.425-2.52,5.593-4.197,9.041-4.787
								L71.162,112.447z"/>
						</g>
						<path style="fill:#E9B49D;" d="M76.332,178.205L76.332,178.205c4.604-1.402,7.463-5.993,6.689-10.743l-7.637-46.927
							l-10.326,5.937l-1.139,42.275C63.741,175.312,70.05,180.118,76.332,178.205z"/>
					</g>
				</g>
				<g>
					<path style="fill:#E16477;" d="M187.244,161.317l-13.892-37.612c-1.706-4.618-6.107-7.684-11.03-7.684l0,0l-2.527,22.195
						l15.403,35.897L187.244,161.317z"/>
					<polygon style="fill:#272425;" points="177.691,140.223 169.505,160.843 175.199,174.113 					"/>
					<g>
						<g>
							<g>
								<polygon style="fill:#E9B49D;" points="191.292,127.817 180.966,121.88 187.976,106.219 202.422,114.524 								"/>
								<path style="fill:#E9B49D;" d="M180.966,121.88l-0.46-8.972c-0.051-0.999,0.014-2,0.194-2.984l1.322-7.223l0,0
									c1.247,0.297,2.177,1.341,2.326,2.615l1.043,8.866L180.966,121.88z"/>
								<path style="fill:#E9B49D;" d="M187.976,106.219l7.028-13.625c0.359-0.7,1.23-0.958,1.912-0.566l0,0
									c0.598,0.344,0.849,1.077,0.588,1.715l-5.952,14.531L187.976,106.219z"/>
								<path style="fill:#E9B49D;" d="M191.552,108.275l8.293-14.425c0.429-0.747,1.383-1.004,2.13-0.575l0,0
									c0.689,0.396,0.97,1.247,0.653,1.976l-6.757,15.507L191.552,108.275z"/>
								<path style="fill:#E9B49D;" d="M195.871,110.758l8.583-13.006c0.374-0.566,1.124-0.744,1.712-0.406l0,0
									c0.599,0.344,0.818,1.102,0.496,1.713l-7.245,13.738L195.871,110.758z"/>
								<path style="fill:#E9B49D;" d="M199.417,112.797l6.964-9.109c0.358-0.468,1.007-0.598,1.518-0.305l0,0
									c0.575,0.331,0.762,1.072,0.413,1.636l-5.889,9.506L199.417,112.797z"/>
							</g>
							<path style="fill:#DB9A83;" d="M185.188,112.447l11.643,6.694l-1.684-1.749c-2.425-2.52-5.593-4.197-9.041-4.787
								L185.188,112.447z"/>
						</g>
						<path style="fill:#E9B49D;" d="M180.018,178.205L180.018,178.205c-4.604-1.402-7.463-5.993-6.689-10.743l7.637-46.927
							l10.326,5.937l1.14,42.275C192.609,175.312,186.3,180.118,180.018,178.205z"/>
					</g>
				</g>
				<g>
					<polygon style="fill:#3E2765;" points="178.932,247.401 77.418,247.401 97.811,199.574 158.539,199.574 					"/>
					<polygon style="fill:#272425;" points="97.811,199.574 158.539,199.574 159.643,202.164 95.086,205.967 					"/>
				</g>
				<g>
					<g>
						<path style="fill:#AF4763;" d="M147.565,132.336l-0.363-0.447c4.788-3.891,8.231-9.061,9.957-14.951l0.553,0.162
							C155.953,123.102,152.445,128.37,147.565,132.336z"/>
					</g>
					<g>
						<path style="fill:#AF4763;" d="M128.175,139.214c-7.264,0-14.315-2.579-19.854-7.263l0.372-0.44
							c5.435,4.596,12.354,7.127,19.482,7.127c5.805,0,11.442-1.652,16.303-4.776l0.312,0.484
							C139.836,137.531,134.091,139.214,128.175,139.214z"/>
					</g>
					<g>
						<path style="fill:#AF4763;" d="M104.091,127.594c-2.496-3.135-4.331-6.666-5.453-10.495l0.553-0.162
							c1.101,3.757,2.901,7.222,5.35,10.298L104.091,127.594z"/>
					</g>
					<g>
						<path style="fill:#AF4763;" d="M125.31,145.622c-6.784,0-13.43-2.428-19.389-4.605l0.197-0.541
							c6.83,2.495,14.572,5.322,22.313,4.386c3.094-0.375,6.182-1.358,9.169-2.309c4.65-1.48,9.458-3.01,14.338-2.24l-0.09,0.569
							c-4.744-0.746-9.276,0.693-14.073,2.221c-3.012,0.959-6.127,1.95-9.275,2.331C127.436,145.562,126.371,145.622,125.31,145.622
							z"/>
					</g>
					<g>
						
							<rect x="128.624" y="172.234" transform="matrix(0.0459 -0.9989 0.9989 0.0459 -72.5599 315.5406)" style="fill:#AF4763;" width="0.576" height="47.045"/>
					</g>
					<g>
						
							<rect x="118.378" y="192.66" transform="matrix(1 -0.0097 0.0097 1 -1.8695 1.301)" style="fill:#AF4763;" width="29.006" height="0.576"/>
					</g>
					<g>
						
							<rect x="126.014" y="175.216" transform="matrix(0.0439 -0.999 0.999 0.0439 -67.4 306.2482)" style="fill:#AF4763;" width="0.577" height="26.244"/>
					</g>
					<g>
						<polygon style="fill:#AF4763;" points="95.487,139.115 89.043,134.112 89.396,133.657 94.11,137.316 89.626,126.601 
							90.158,126.378 						"/>
					</g>
					<g>
						<polygon style="fill:#AF4763;" points="160.863,139.115 167.307,134.112 166.954,133.657 162.24,137.316 166.724,126.601 
							166.192,126.378 						"/>
					</g>
					<g>
						
							<rect x="129.039" y="190.907" transform="matrix(0.0405 -0.9992 0.9992 0.0405 -95.0893 339.6935)" style="fill:#281949;" width="0.577" height="56.901"/>
					</g>
					<g>
						
							<rect x="104.165" y="224.16" transform="matrix(1 -0.005 0.005 1 -1.1281 0.6257)" style="fill:#281949;" width="39.184" height="0.576"/>
					</g>
					<g>
						
							<rect x="115.3" y="215.709" transform="matrix(0.9997 -0.0264 0.0264 0.9997 -5.6495 3.5945)" style="fill:#281949;" width="36.315" height="0.576"/>
					</g>
				</g>
				<g>
					<g>
						<path style="fill:#E9B49D;" d="M128.175,114.093c-3.305,0-6.415-1.255-9.131-3.465l-0.572,8.868h19.407l-0.572-8.868
							C134.59,112.837,131.48,114.093,128.175,114.093L128.175,114.093z"/>
						<path style="fill:#272425;" d="M119.82,98.607l-0.776,12.02c2.716,2.21,5.826,3.465,9.131,3.465h0
							c3.305,0,6.415-1.255,9.131-3.465l-0.776-12.02H119.82z"/>
					</g>
					<path style="fill:#E9B49D;" d="M104.318,116.021c3.024,10.322,12.557,17.863,23.857,17.863c11.3,0,20.833-7.541,23.857-17.863
						H104.318z"/>
					<g>
						<g>
							<g>
								<circle style="fill:#DB9A83;" cx="106.975" cy="89.196" r="7.563"/>
								<path style="fill:#C97E67;" d="M106.975,93.301c-2.264,0-4.106-1.842-4.106-4.106s1.842-4.106,4.106-4.106
									c2.264,0,4.106,1.842,4.106,4.106S109.239,93.301,106.975,93.301z"/>
							</g>
							<g>
								<circle style="fill:#DB9A83;" cx="149.375" cy="89.196" r="7.563"/>
								<circle style="fill:#C97E67;" cx="149.375" cy="89.196" r="4.106"/>
							</g>
						</g>
						<path style="fill:#E9B49D;" d="M128.175,109.052L128.175,109.052c-10.608,0-19.208-8.599-19.208-19.207V77.167
							c0-10.608,8.6-19.208,19.208-19.208h0c10.608,0,19.208,8.6,19.208,19.208v6.339v6.339
							C147.383,100.452,138.783,109.052,128.175,109.052z"/>
						<g>
							<g>
								<path style="fill:#272425;" d="M122.209,85.102c0,1.081-0.876,1.957-1.957,1.957c-1.081,0-1.957-0.876-1.957-1.957
									c0-1.081,0.876-1.957,1.957-1.957C121.333,83.145,122.209,84.021,122.209,85.102z"/>
								<circle style="fill:#FFFFFF;" cx="119.576" cy="84.315" r="0.613"/>
							</g>
							<g>
								<path style="fill:#74231A;" d="M122.736,81.891c-0.221,0-0.443-0.084-0.611-0.253c-0.517-0.517-1.205-0.802-1.937-0.802
									c-0.732,0-1.42,0.285-1.937,0.802c-0.338,0.338-0.885,0.338-1.222,0c-0.338-0.337-0.338-0.885,0-1.222
									c0.844-0.844,1.966-1.309,3.159-1.309c1.194,0,2.315,0.465,3.159,1.309c0.338,0.338,0.338,0.885,0,1.222
									C123.179,81.807,122.957,81.891,122.736,81.891z"/>
							</g>
						</g>
						<g>
							<g>
								<path style="fill:#272425;" d="M138.055,85.102c0,1.081-0.876,1.957-1.957,1.957c-1.081,0-1.957-0.876-1.957-1.957
									c0-1.081,0.876-1.957,1.957-1.957C137.179,83.145,138.055,84.021,138.055,85.102z"/>
								<path style="fill:#FFFFFF;" d="M136.035,84.315c0,0.338-0.274,0.613-0.613,0.613c-0.338,0-0.612-0.274-0.612-0.613
									c0-0.338,0.274-0.612,0.612-0.612C135.76,83.702,136.035,83.976,136.035,84.315z"/>
							</g>
							<g>
								<path style="fill:#74231A;" d="M133.614,81.891c0.221,0,0.442-0.084,0.611-0.253c0.517-0.517,1.205-0.802,1.937-0.802
									c0.732,0,1.42,0.285,1.937,0.802c0.338,0.338,0.885,0.338,1.222,0c0.338-0.337,0.338-0.885,0-1.222
									c-0.844-0.844-1.966-1.309-3.159-1.309c-1.194,0-2.315,0.465-3.159,1.309c-0.338,0.338-0.338,0.885,0,1.222
									C133.171,81.807,133.393,81.891,133.614,81.891z"/>
							</g>
						</g>
						<path style="fill:#C97E67;" d="M123.902,91.093c0.655,1.725,2.318,2.953,4.273,2.953c1.955,0,3.618-1.228,4.273-2.953H123.902
							z"/>
						<circle style="fill:#DB9387;" cx="114.952" cy="92.57" r="3.343"/>
						<path style="fill:#DB9387;" d="M138.055,92.57c0,1.846,1.497,3.343,3.343,3.343c1.846,0,3.343-1.497,3.343-3.343
							c0-1.846-1.497-3.343-3.343-3.343C139.552,89.226,138.055,90.723,138.055,92.57z"/>
						<path style="fill:#E16477;" d="M129.769,95.624c-0.601,0-1.151,0.205-1.594,0.544c-0.443-0.339-0.993-0.544-1.594-0.544
							c-0.897,0-1.687,0.45-2.164,1.134h3.187h1.141h3.187C131.456,96.074,130.666,95.624,129.769,95.624z"/>
						<path style="fill:#E16477;" d="M128.175,104.226c-1.438,0-2.705-0.721-3.469-1.819h6.938
							C130.88,103.504,129.613,104.226,128.175,104.226z"/>
						<path style="fill:#FFFFFF;" d="M118.952,96.759c1.413,3.723,5.004,6.375,9.223,6.375c4.219,0,7.81-2.651,9.223-6.375H118.952z
							"/>
						<path style="fill:#74231A;" d="M154.357,73.65c0-6.868-2.648-13.116-6.975-17.786c-4.782-5.162-11.616-8.396-19.208-8.396
							c-7.592,0-14.425,3.234-19.208,8.396c-4.327,4.67-6.975,10.918-6.975,17.786s2.648,13.116,6.975,17.786v-7.055
							c2.967-1.47,5.013-4.518,5.013-8.053c0-0.657-0.075-1.295-0.209-1.911c2.478,0.863,5.195,0.969,7.781,0.243l-2.097,3.023
							c4.546,1.125,9.512-0.57,12.34-4.647c0.04-0.059,0.074-0.12,0.114-0.179v4.528c3.26-1.242,5.609-4.317,5.784-7.969
							c0.148,0.251,0.304,0.499,0.473,0.742c1.189,1.714,2.759,3.002,4.515,3.841c-0.199,0.743-0.311,1.522-0.311,2.328
							c0,3.536,2.046,6.584,5.013,8.053v7.055C151.709,86.766,154.357,80.518,154.357,73.65z"/>
					</g>
				</g>
			</g>
		</g>
		<g>
			<path style="fill:#DAE2FF;" d="M443.087,472.566h-141.7c-8.001-8.237-15.086-17.294-19.372-27.948
				c-4.286-10.653-3.756-24.088,4.343-32.228c4.101-4.122,9.697-6.516,13.75-10.685c7.436-7.649,8.181-19.655,6.215-30.14
				c-1.966-10.485-6.167-20.546-7.051-31.178s2.569-22.697,11.969-27.741c9.617-5.161,21.977-1.356,31.979-5.723
				c10.883-4.751,15.665-17.453,24.49-25.399c9.424-8.485,23.873-10.896,35.542-5.931c11.669,4.965,19.95,17.049,20.37,29.723
				c0.226,6.82-1.552,14.084,1.469,20.202c5.014,10.156,20.172,11.303,26.062,20.978c5.571,9.151,0.214,20.904-5.735,29.813
				c-5.949,8.91-12.882,19.055-10.119,29.406c1.968,7.375,8.395,12.554,12.645,18.895C456.88,437.945,454.41,461.19,443.087,472.566
				z"/>
			<g>
				<g>
					<path style="fill:#E9B49D;" d="M431.359,388.005l-14.706-41.32c-1.173-3.297-4.294-5.499-7.794-5.499l0,0l-3.216,23.094
						l16.092,34.997L431.359,388.005z"/>
					<polygon style="fill:#272425;" points="424.047,367.856 415.842,386.461 421.736,399.278 					"/>
					<g>
						<g>
							<g>
								<polygon style="fill:#E9B49D;" points="437.829,352.982 427.503,347.045 434.513,331.384 448.958,339.69 								"/>
								<path style="fill:#E9B49D;" d="M427.503,347.045l-0.46-8.972c-0.051-0.999,0.014-2,0.194-2.984l1.322-7.223l0,0
									c1.247,0.297,2.177,1.341,2.327,2.615l1.043,8.866L427.503,347.045z"/>
								<path style="fill:#E9B49D;" d="M434.513,331.384l7.028-13.625c0.358-0.7,1.23-0.958,1.912-0.566l0,0
									c0.598,0.344,0.849,1.077,0.588,1.716l-5.952,14.531L434.513,331.384z"/>
								<path style="fill:#E9B49D;" d="M438.089,333.44l8.293-14.425c0.429-0.747,1.383-1.004,2.13-0.575l0,0
									c0.689,0.396,0.97,1.247,0.653,1.976l-6.757,15.507L438.089,333.44z"/>
								<path style="fill:#E9B49D;" d="M442.408,335.923l8.582-13.006c0.374-0.567,1.124-0.745,1.712-0.406l0,0
									c0.599,0.345,0.818,1.102,0.496,1.713l-7.245,13.738L442.408,335.923z"/>
								<path style="fill:#E9B49D;" d="M445.954,337.962l6.964-9.109c0.358-0.468,1.007-0.598,1.518-0.305l0,0
									c0.575,0.331,0.762,1.072,0.413,1.636l-5.89,9.506L445.954,337.962z"/>
							</g>
							<path style="fill:#DB9A83;" d="M431.725,337.612l11.643,6.694l-1.684-1.749c-2.426-2.52-5.593-4.197-9.041-4.788
								L431.725,337.612z"/>
						</g>
						<path style="fill:#E9B49D;" d="M426.555,403.37L426.555,403.37c-4.604-1.402-7.462-5.993-6.689-10.743l7.638-46.927
							l10.326,5.937l1.139,42.275C439.145,400.477,432.836,405.283,426.555,403.37z"/>
					</g>
				</g>
				<g>
					<path style="fill:#DB9A83;" d="M336.835,468.337l-0.003-0.005c-1.009-1.753-2.857-2.854-4.879-2.907l-2.291-3.768l-3.533-4.453
						l-2.343,1.054l-1.979-2.494l-2.343,1.054l-1.979-2.494l-2.343,1.054l-1.164-1.467l-0.529,5.293l2.124,2.67
						c1.077,1.354,2.712,2.142,4.442,2.142h0.557c1.03,0.916,2.364,1.441,3.765,1.441h0.556c1.031,0.916,2.364,1.441,3.765,1.441
						h0.557c1.031,0.916,2.364,1.441,3.765,1.441H336.835z"/>
					<path style="fill:#E9B49D;" d="M344.309,364.281l-3.154-23.094l0,0l0,0c-4.751,0-9.053,2.809-10.965,7.159l-19.094,43.463
						c-1.597,3.635-2.155,7.642-1.611,11.575l5.539,40.083l-1.441,14.406l16.152,6.627v-21.032l-5.866-44.189L344.309,364.281z"/>
					<path style="fill:#E9B49D;" d="M329.736,443.467l5.6,9.364l1.729,9.94l0,0c-1.631,0-3.074-1.054-3.571-2.607l-1.471-4.596
						l-2.287-2.449V443.467z"/>
				</g>
				<path style="fill:#E59A2F;" d="M408.389,354.401l-4.564-15.364c-0.799-2.691-1.348-5.441-1.639-8.22l-1.379-13.151
					l-25.538-4.139l-25.538,4.139l-1.379,13.151c-0.291,2.778-0.84,5.528-1.639,8.22l-4.564,15.364
					c-1.746,5.879,1.256,12.078,7.161,14.786l25.959,11.904l25.959-11.904C407.133,366.479,410.135,360.28,408.389,354.401z"/>
				<g>
					<polygon style="fill:#C04EA0;" points="344.906,412.639 405.633,412.639 410.285,341.187 340.254,341.187 					"/>
					<polygon style="fill:#A0448A;" points="342.649,377.967 343.357,388.848 407.182,388.848 407.891,377.967 					"/>
					<path style="fill:#C04EA0;" d="M401.271,384.838h-52.004c-7.477,0-12.198-7.856-9.352-15.223l5.141-13.31h60.427l5.141,13.31
						C413.47,376.983,408.749,384.838,401.271,384.838z"/>
				</g>
				<g>
					<g>
						<path style="fill:#FFCAB8;" d="M375.27,339.258c-3.305,0-6.415-1.256-9.131-3.465l-0.572,8.868h19.407l-0.572-8.868
							C381.685,338.003,378.575,339.258,375.27,339.258L375.27,339.258z"/>
						<path style="fill:#272425;" d="M366.914,323.773l-0.776,12.02c2.716,2.21,5.826,3.465,9.131,3.465h0
							c3.305,0,6.415-1.256,9.131-3.465l-0.776-12.02H366.914z"/>
					</g>
					<path style="fill:#FFCAB8;" d="M348.358,341.187c3.411,11.643,14.165,20.15,26.911,20.15c12.747,0,23.5-8.506,26.911-20.15
						H348.358z"/>
				</g>
				<path style="fill:#3D579E;" d="M405.633,412.639H375.27h-30.364c-10.763,12.854-15.653,29.627-13.485,46.251l1.784,13.676
					h42.065h42.065l1.784-13.676C421.286,442.266,416.396,425.493,405.633,412.639z"/>
				<g>
					<path style="fill:#FFFFFF;" d="M373.748,356.206c0-0.023,0-0.046,0-0.063l0,0c0,0.017-0.006,0.041-0.012,0.063l0,0
						c-0.196,0.934-1.112,1.533-2.046,1.337l0,0l0,0l0,0c-0.934-0.202-1.533-1.118-1.337-2.051l0,0
						c0.006-0.029,0.012-0.052,0.017-0.081l0,0c-0.006,0.029-0.017,0.052-0.029,0.075l0,0c-0.403,0.87-1.429,1.251-2.293,0.847l0,0
						c-0.87-0.397-1.25-1.423-0.847-2.293l0,0c0.012-0.023,0.023-0.052,0.035-0.075l0,0c-0.012,0.023-0.029,0.046-0.046,0.069l0,0
						c-0.582,0.755-1.665,0.899-2.426,0.317l0,0c-0.755-0.582-0.899-1.665-0.317-2.426l0,0c0.012-0.018,0.029-0.035,0.046-0.052l0,0
						c-0.023,0.017-0.04,0.029-0.058,0.046l0,0c-0.732,0.611-1.821,0.513-2.431-0.219l0,0c-0.611-0.737-0.513-1.827,0.219-2.437l0,0
						c0.017-0.017,0.035-0.029,0.058-0.046l0,0c-0.023,0.012-0.04,0.023-0.063,0.035l0,0c-0.853,0.432-1.89,0.098-2.328-0.749l0,0
						c-0.432-0.853-0.098-1.896,0.755-2.328l0,0c0.023-0.011,0.046-0.023,0.069-0.035l0,0c-0.023,0.006-0.052,0.017-0.075,0.023l0,0
						c-0.928,0.236-1.867-0.329-2.103-1.25l0,0c-0.236-0.928,0.328-1.867,1.25-2.103l0,0c0.029-0.006,0.052-0.011,0.081-0.017l0,0
						c-0.029,0-0.052,0.006-0.081,0.006l0,0c-0.957,0.023-1.746-0.726-1.775-1.683l0,0c-0.023-0.956,0.726-1.752,1.682-1.775l0,0
						c0.957-0.023,1.752,0.732,1.775,1.683l0,0c0.023,0.853-0.57,1.573-1.377,1.74l0,0c0.818-0.058,1.585,0.472,1.798,1.297l0,0
						c0.207,0.824-0.213,1.659-0.957,1.999l0,0c0.784-0.236,1.648,0.115,2.034,0.87l0,0c0.386,0.749,0.167,1.654-0.484,2.155l0,0
						c0.714-0.403,1.63-0.254,2.178,0.397l0,0c0.542,0.651,0.524,1.585,0,2.213l0,0c0.605-0.548,1.538-0.599,2.213-0.087l0,0
						c0.674,0.519,0.859,1.435,0.478,2.167l0,0c0.472-0.674,1.371-0.934,2.144-0.582l0,0c0.772,0.357,1.158,1.21,0.951,2.005l0,0
						c0.305-0.761,1.124-1.216,1.959-1.037l0,0c0.824,0.173,1.389,0.91,1.371,1.729l0,0c0.138-0.807,0.83-1.423,1.677-1.435l0,0
						c0.847-0.012,1.556,0.588,1.717,1.388l0,0c-0.04-0.818,0.507-1.567,1.325-1.769l0,0c0.824-0.196,1.648,0.23,1.983,0.979l0,0
						c-0.219-0.789,0.144-1.642,0.899-2.017l0,0c0.761-0.38,1.66-0.144,2.15,0.513l0,0c-0.392-0.72-0.225-1.636,0.432-2.172l0,0
						c0.657-0.53,1.59-0.501,2.213,0.035l0,0c-0.542-0.616-0.588-1.55-0.058-2.219l0,0c0.524-0.663,1.44-0.841,2.167-0.455l0,0
						c-0.663-0.478-0.91-1.377-0.548-2.143l0,0c0.369-0.772,1.227-1.141,2.022-0.922l0,0c-0.761-0.317-1.204-1.141-1.02-1.977l0,0
						c0.184-0.824,0.939-1.377,1.752-1.348l0,0c-0.801-0.144-1.412-0.847-1.412-1.7l0,0c0-0.951,0.772-1.723,1.729-1.723l0,0
						c0.95,0,1.729,0.772,1.729,1.723l0,0l0,0l0,0c0,0.957-0.778,1.729-1.729,1.729l0,0c-0.023,0-0.052,0-0.075,0l0,0
						c0.023,0.006,0.052,0.012,0.075,0.017l0,0c0.927,0.207,1.515,1.135,1.308,2.063l0,0c-0.213,0.933-1.135,1.515-2.069,1.308l0,0
						c-0.029-0.006-0.057-0.012-0.086-0.023l0,0c0.029,0.012,0.052,0.023,0.08,0.035l0,0c0.859,0.415,1.227,1.446,0.818,2.305l0,0
						c0,0,0,0,0,0.006l0,0c-0.415,0.859-1.446,1.222-2.311,0.813l0,0c-0.017-0.012-0.04-0.023-0.063-0.035l0,0
						c0.017,0.017,0.04,0.029,0.058,0.046l0,0c0.749,0.588,0.876,1.677,0.288,2.426l0,0l0,0l0,0
						c-0.594,0.749-1.683,0.876-2.432,0.288l0,0c-0.017-0.017-0.034-0.035-0.057-0.052l0,0c0.018,0.023,0.034,0.04,0.052,0.057l0,0
						c0.599,0.743,0.484,1.832-0.254,2.432l0,0c-0.743,0.605-1.832,0.49-2.431-0.254l0,0c-0.017-0.017-0.029-0.035-0.046-0.052l0,0
						c0.012,0.017,0.023,0.04,0.035,0.064l0,0c0.42,0.853,0.069,1.89-0.784,2.316l0,0l0,0l0,0c-0.859,0.421-1.89,0.069-2.316-0.789
						l0,0c-0.012-0.017-0.017-0.04-0.029-0.063l0,0c0.006,0.023,0.012,0.046,0.017,0.069l0,0c0.219,0.928-0.352,1.861-1.279,2.086
						l0,0l0,0l0,0c-0.928,0.219-1.862-0.352-2.086-1.279l0,0c-0.006-0.023-0.006-0.04-0.012-0.064l0,0c0,0.023,0,0.04,0,0.064l0,0
						c0.012,0.956-0.749,1.74-1.705,1.752l0,0l0,0l0,0c-0.006,0-0.012,0-0.018,0l0,0
						C374.532,357.912,373.765,357.157,373.748,356.206z"/>
				</g>
				<g>
					<path style="fill:#E59A2F;" d="M401.205,297.354c0-14.324-11.612-25.936-25.936-25.936h0
						c-14.324,0-25.936,11.612-25.936,25.936v19.214h6.728v-13.039l38.415,0.545v12.494h6.728V297.354z"/>
					<g>
						<g>
							<g>
								<circle style="fill:#E9B49D;" cx="354.069" cy="314.361" r="7.563"/>
								<path style="fill:#DB9387;" d="M354.069,318.467c-2.264,0-4.106-1.842-4.106-4.106c0-2.264,1.842-4.106,4.106-4.106
									c2.264,0,4.106,1.842,4.106,4.106C358.175,316.625,356.333,318.467,354.069,318.467z"/>
							</g>
							<g>
								<circle style="fill:#E9B49D;" cx="396.47" cy="314.361" r="7.563"/>
								<circle style="fill:#DB9387;" cx="396.47" cy="314.361" r="4.106"/>
							</g>
						</g>
						<circle style="fill:#FFFFFF;" cx="353.525" cy="322.54" r="1.881"/>
						<circle style="fill:#FFE4CA;" cx="397.014" cy="322.54" r="1.881"/>
					</g>
					<path style="fill:#FFCAB8;" d="M375.27,334.217L375.27,334.217c-10.608,0-19.208-8.6-19.208-19.208v-12.677
						c0-10.608,8.6-19.208,19.208-19.208h0c10.608,0,19.207,8.6,19.207,19.208v6.339v6.339
						C394.477,325.617,385.878,334.217,375.27,334.217z"/>
					<g>
						<g>
							<circle style="fill:#3D579E;" cx="367.346" cy="310.267" r="1.957"/>
							<circle style="fill:#FFFFFF;" cx="366.67" cy="309.48" r="0.613"/>
						</g>
						<g>
							<path style="fill:#E59A2F;" d="M369.831,307.057c-0.221,0-0.443-0.084-0.611-0.253c-0.517-0.517-1.205-0.802-1.937-0.802
								c-0.732,0-1.42,0.285-1.937,0.802c-0.338,0.338-0.885,0.338-1.222,0c-0.338-0.337-0.338-0.885,0-1.222
								c0.844-0.844,1.966-1.309,3.159-1.309c1.194,0,2.315,0.465,3.159,1.309c0.338,0.338,0.338,0.885,0,1.222
								C370.273,306.972,370.052,307.057,369.831,307.057z"/>
						</g>
					</g>
					<g>
						<g>
							<path style="fill:#3D579E;" d="M385.149,310.267c0,1.081-0.876,1.957-1.957,1.957s-1.957-0.876-1.957-1.957
								c0-1.081,0.876-1.957,1.957-1.957S385.149,309.187,385.149,310.267z"/>
							<path style="fill:#FFFFFF;" d="M383.129,309.48c0,0.338-0.274,0.612-0.613,0.612c-0.338,0-0.612-0.274-0.612-0.612
								c0-0.338,0.274-0.613,0.612-0.613C382.855,308.867,383.129,309.142,383.129,309.48z"/>
						</g>
						<g>
							<path style="fill:#E59A2F;" d="M380.708,307.057c0.221,0,0.443-0.084,0.611-0.253c0.517-0.517,1.205-0.802,1.937-0.802
								c0.732,0,1.42,0.285,1.937,0.802c0.338,0.338,0.885,0.338,1.222,0c0.338-0.337,0.338-0.885,0-1.222
								c-0.844-0.844-1.966-1.309-3.159-1.309c-1.194,0-2.315,0.465-3.159,1.309c-0.338,0.338-0.338,0.885,0,1.222
								C380.266,306.972,380.487,307.057,380.708,307.057z"/>
						</g>
					</g>
					<path style="fill:#C97E67;" d="M370.997,316.259c0.655,1.725,2.318,2.953,4.273,2.953c1.955,0,3.618-1.228,4.273-2.953H370.997
						z"/>
					<path style="fill:#DB9387;" d="M365.39,317.735c0,1.846-1.497,3.343-3.343,3.343s-3.343-1.497-3.343-3.343
						c0-1.846,1.497-3.343,3.343-3.343S365.39,315.889,365.39,317.735z"/>
					<path style="fill:#DB9387;" d="M385.149,317.735c0,1.846,1.497,3.343,3.343,3.343c1.846,0,3.343-1.497,3.343-3.343
						c0-1.846-1.497-3.343-3.343-3.343C386.646,314.392,385.149,315.889,385.149,317.735z"/>
					<path style="fill:#E16477;" d="M376.863,320.79c-0.601,0-1.151,0.205-1.594,0.544c-0.443-0.339-0.993-0.544-1.594-0.544
						c-0.897,0-1.687,0.45-2.164,1.134h3.187h1.141h3.187C378.55,321.24,377.76,320.79,376.863,320.79z"/>
					<path style="fill:#E16477;" d="M375.27,329.391c-1.438,0-2.705-0.721-3.469-1.819h6.938
						C377.975,328.67,376.708,329.391,375.27,329.391z"/>
					<path style="fill:#FFFFFF;" d="M366.046,321.924c1.413,3.723,5.004,6.375,9.223,6.375c4.219,0,7.81-2.651,9.223-6.375H366.046z
						"/>
					<path style="fill:#E59A2F;" d="M396.414,303.848l0.055-0.319h-0.105l-5.753-21.045h-30.612v2.279l-5.93,18.767l1.993,11.481
						v-11.481h10.017c6.498,0,12.233-3.252,15.676-8.215c2.49,4.725,7.189,8.098,12.722,8.76v10.935l1.877-10.812
						c0.039,0,0.077,0.004,0.116,0.004L396.414,303.848z"/>
				</g>
				<g>
					<g>
						
							<rect x="372.964" y="386.261" transform="matrix(0.0361 -0.9993 0.9993 0.0361 -50.151 768.3834)" style="fill:#A0448A;" width="0.577" height="47.858"/>
					</g>
					<g>
						
							<rect x="363.743" y="407.453" transform="matrix(0.9999 -0.0167 0.0167 0.9999 -6.7395 6.41)" style="fill:#A0448A;" width="35.299" height="0.576"/>
					</g>
					<g>
						<rect x="358.559" y="403.506" style="fill:#A0448A;" width="39.76" height="0.576"/>
					</g>
					<g>
						
							<rect x="374.383" y="425.077" transform="matrix(0.1208 -0.9927 0.9927 0.1208 -127.8096 776.9181)" style="fill:#29437C;" width="0.576" height="71.062"/>
					</g>
					<g>
						
							<rect x="385.124" y="425.499" transform="matrix(0.017 -0.9999 0.9999 0.017 -76.2942 832.8762)" style="fill:#29437C;" width="0.576" height="59.478"/>
					</g>
					<g>
						
							<rect x="350.045" y="448.755" transform="matrix(0.9979 -0.0645 0.0645 0.9979 -28.193 25.4669)" style="fill:#29437C;" width="59.96" height="0.576"/>
					</g>
					<g>
						
							<rect x="369.867" y="419.655" transform="matrix(0.0062 -1 1 0.0062 -75.1793 810.4859)" style="fill:#29437C;" width="0.576" height="46.819"/>
					</g>
					<g>
						<g>
							<path style="fill:#A0448A;" d="M400.132,353.416l-0.38-0.314c2.769-3.347,4.789-7.148,6.005-11.297l0.473,0.139
								C404.995,346.157,402.944,350.017,400.132,353.416z"/>
						</g>
						<g>
							<path style="fill:#A0448A;" d="M388.39,362.344l-0.201-0.45c3.844-1.715,7.265-4.142,10.169-7.215l0.358,0.338
								C395.767,358.138,392.293,360.603,388.39,362.344z"/>
						</g>
						<g>
							<path style="fill:#A0448A;" d="M375.27,365.125c-6.773,0-13.254-2.076-18.744-6.004c-1.07-0.766-2.104-1.606-3.074-2.497
								l0.333-0.363c0.955,0.878,1.974,1.705,3.027,2.459c5.405,3.868,11.788,5.912,18.457,5.912c3.893,0,7.694-0.696,11.298-2.068
								l0.175,0.46C383.082,364.418,379.223,365.125,375.27,365.125z"/>
						</g>
						<g>
							<path style="fill:#A0448A;" d="M350.403,353.412c-1.718-2.078-3.171-4.364-4.318-6.793l0.446-0.21
								c1.129,2.393,2.56,4.643,4.252,6.689L350.403,353.412z"/>
						</g>
						<g>
							<path style="fill:#A0448A;" d="M345.594,345.526c-0.497-1.164-0.93-2.369-1.285-3.582l0.473-0.139
								c0.35,1.194,0.776,2.382,1.265,3.528L345.594,345.526z"/>
						</g>
					</g>
				</g>
			</g>
		</g>
	</g>
</g>
</svg>
